<svg xmlns="http://www.w3.org/2000/svg" viewBox="0 0 24.42 41.92"><title>18-05-25 TermsOfService</title><g style="isolation:isolate"><g id="Layer_1" data-name="Layer 1"><polygon points="17.43 23.81 24.42 23.81 24.42 2.42 3.91 2.42 3.91 23.81 6.16 23.81 17.43 23.81" style="fill:#fcf2d7"/><g style="opacity:0.22;mix-blend-mode:multiply"><polygon points="22.59 21.42 3.91 21.42 3.91 23.81 24.42 23.81 24.42 2.42 22.59 2.42 22.59 21.42" style="fill:#1d1d1b"/></g><rect x="6.19" y="37.28" width="12.31" height="4.65" style="fill:#2888be"/><g style="opacity:0.22;mix-blend-mode:multiply"><rect x="5.97" y="37.28" width="4.5" height="4.65" style="fill:#1d1d1b"/></g><path d="M510.84,198.69a1.25,1.25,0,0,1,.06-1.63,1.39,1.39,0,0,1,1.77-.07l3.35,2.08,0.74-11.75a1.1,1.1,0,0,1,1.1-1h0a1.1,1.1,0,0,1,1.09,1l0.71,7a1.72,1.72,0,0,1,1.55-1.07,1.69,1.69,0,0,1,1.5,1.66,1.44,1.44,0,0,1,1.47-.91,1.56,1.56,0,0,1,1.37,1.69,1.3,1.3,0,0,1,1.08-.81c0.59,0,1.48.42,1.48,1.93l-0.06,7.37c0,1.82-.78,1.24-0.78,3.79h-9.51c0-.89-1.92-2.31-2.71-3.43Z" transform="translate(-510.07 -170.64)" style="fill:#e6cda2"/><g style="opacity:0.22;mix-blend-mode:multiply"><path d="M522.9,196.15a1.44,1.44,0,0,1,1.47-.91,1.17,1.17,0,0,1,.67.2,1.44,1.44,0,0,0-1.33-1.36,1.46,1.46,0,0,0-1.42.79A1.69,1.69,0,0,1,522.9,196.15Z" transform="translate(-510.07 -170.64)" style="fill:#1d1d1b"/></g><g style="opacity:0.22;mix-blend-mode:multiply"><path d="M525.74,196.93a1.3,1.3,0,0,1,1.08-.81,1.39,1.39,0,0,1,.78.25,1.49,1.49,0,0,0-1.44-1.42,1.17,1.17,0,0,0-1,.61A2,2,0,0,1,525.74,196.93Z" transform="translate(-510.07 -170.64)" style="fill:#1d1d1b"/></g><g style="opacity:0.22;mix-blend-mode:multiply"><path d="M519.85,195.57a1.72,1.72,0,0,1,1.55-1.07,1.39,1.39,0,0,1,.81.32,1.68,1.68,0,0,0-1.48-1.49,1.56,1.56,0,0,0-1.07.41Z" transform="translate(-510.07 -170.64)" style="fill:#1d1d1b"/></g><g style="opacity:0.22;mix-blend-mode:multiply"><path d="M511.74,198.56a1.39,1.39,0,0,1,1.77-.07l2.83,1.76a0.37,0.37,0,0,0,.56-0.29l0.7-11.13a1.1,1.1,0,0,1,1.1-1,1.08,1.08,0,0,1,.46.11l0-.29a1.1,1.1,0,0,0-2.19,0l-0.74,11.75-3.35-2.08a1.39,1.39,0,0,0-1.77.07A1.25,1.25,0,0,0,511,199l0.43,0.59A1.23,1.23,0,0,1,511.74,198.56Z" transform="translate(-510.07 -170.64)" style="fill:#1d1d1b"/></g><rect x="7.16" y="4.64" width="10.34" height="3.91" style="fill:#fff"/><path d="M527.28,208.41h-9.51a0.5,0.5,0,0,1-.5-0.5,5.27,5.27,0,0,0-1.37-1.74,12.49,12.49,0,0,1-1.25-1.4L510.44,199a1.74,1.74,0,0,1,.09-2.27,1.88,1.88,0,0,1,2.41-.15l2.64,1.64,0.69-10.92a1.6,1.6,0,0,1,3.19-.06L520,193a2.06,2.06,0,0,1,1.17-.35,2.12,2.12,0,0,1,1.71,1.11,2.16,2.16,0,0,1,1.26-.36,1.74,1.74,0,0,1,1.63,1.12,1.49,1.49,0,0,1,.82-0.24c0.74,0,2,.51,2,2.43l-0.06,7.37a3.41,3.41,0,0,1-.39,1.73,3.89,3.89,0,0,0-.38,2.05A0.5,0.5,0,0,1,527.28,208.41Zm-9.11-1h8.63a4.29,4.29,0,0,1,.47-2,2.46,2.46,0,0,0,.29-1.3l0.06-7.37c0-1.33-.75-1.43-1-1.43a0.82,0.82,0,0,0-.62.5,0.5,0.5,0,0,1-.56.3,0.5,0.5,0,0,1-.4-0.48,1.11,1.11,0,0,0-.87-1.19,1,1,0,0,0-1,.55,0.5,0.5,0,0,1-1-.14,1.07,1.07,0,0,0-2.08-.41,0.51,0.51,0,0,1-.53.32,0.5,0.5,0,0,1-.43-0.45l-0.71-7a0.6,0.6,0,0,0-1.2,0l-0.74,11.75a0.5,0.5,0,0,1-.76.39l-3.35-2.08a0.92,0.92,0,0,0-1.14,0,0.76,0.76,0,0,0,0,1v0l4.22,5.79a11.62,11.62,0,0,0,1.15,1.28A7,7,0,0,1,518.17,207.41Z" transform="translate(-510.07 -170.64)" style="fill:#273133"/><rect x="12.15" y="24.21" width="1" height="1.52" style="fill:#273133"/><rect x="519.17" y="194.26" width="1" height="1.87" transform="translate(-511.07 -167.94) rotate(-0.3)" style="fill:#273133"/><rect x="14.99" y="24.96" width="1" height="1.28" style="fill:#273133"/><polygon points="19 41.92 18 41.92 18 37.78 6.69 37.78 6.69 41.92 5.69 41.92 5.69 36.78 19 36.78 19 41.92" style="fill:#273133"/><rect x="7.72" y="38.99" width="1" height="0.9" style="fill:#273133"/><rect x="7.72" y="40.97" width="1" height="0.9" style="fill:#273133"/><rect x="6.66" y="10.67" width="1.73" height="1" style="fill:#273133"/><rect x="6.66" y="13.27" width="1.73" height="1" style="fill:#273133"/><rect x="11.47" y="10.67" width="1.73" height="1" style="fill:#273133"/><rect x="11.47" y="13.27" width="1.73" height="1" style="fill:#273133"/><rect x="11.47" y="15.88" width="1.73" height="1" style="fill:#273133"/><rect x="16.28" y="10.67" width="1.73" height="1" style="fill:#273133"/><rect x="16.28" y="13.27" width="1.73" height="1" style="fill:#273133"/><rect x="16.28" y="15.88" width="1.73" height="1" style="fill:#273133"/><path d="M528.07,179.69H516.73v-4.91h11.34v4.91Zm-10.34-1h9.34v-2.91h-9.34v2.91Z" transform="translate(-510.07 -170.64)" style="fill:#273133"/><polygon points="23.1 22.39 15.1 22.39 15.1 21.39 22.1 21.39 22.1 1 2.58 1 2.58 21.39 4.83 21.39 4.83 22.39 1.58 22.39 1.58 0 23.1 0 23.1 22.39" style="fill:#273133"/></g></g></svg>